<svg width="901" height="588" viewBox="0 0 901 588" fill="none" xmlns="http://www.w3.org/2000/svg">
<g id="run" filter="url(#filter0_d)">
<g id="undraw_fitness_stats_sht6 1" clip-path="url(#clip0)">
<path id="Vector" d="M687.656 548.528L734.114 479.44L687.751 555.96L687.848 563.734C684.456 563.76 681.098 563.704 677.772 563.565L680.076 463.634L680.013 462.863L680.098 462.714L680.318 453.271L629.442 379.404L680.258 446.204L680.439 448.2L682.179 372.699L638.235 296.115L682.304 359.435L681.844 203.016L681.845 202.495L681.86 203.007L684.777 326.287L724.827 276.211L684.909 336.907L685.783 404.441L722.636 338.53L685.918 414.37L686.405 451.922L740 360.109L686.568 465.023L687.656 548.528Z" fill="#E6E6E6"/>
<path id="Vector_2" d="M844.005 550.704L890.463 481.616L844.101 558.136L844.197 565.91C840.806 565.936 837.447 565.88 834.121 565.741L836.426 465.81L836.362 465.039L836.448 464.89L836.668 455.448L785.791 381.581L836.608 448.38L836.788 450.376L838.529 374.875L794.585 298.292L838.654 361.611L838.194 205.192L838.195 204.671L838.21 205.183L841.127 328.463L881.177 278.387L841.258 339.083L842.132 406.617L878.986 340.707L842.268 416.546L842.754 454.099L896.35 362.286L842.917 467.199L844.005 550.704Z" fill="#E6E6E6"/>
<path id="Vector_3" d="M357.008 138H79V514.039H357.008V138Z" fill="#E6E6E6"/>
<path id="Vector_4" d="M347.211 152.251H88.7965V501.789H347.211V152.251Z" fill="white"/>
<path id="Vector_5" d="M313.245 212.559H123.591C122.055 212.557 120.582 211.945 119.497 210.858C118.411 209.771 117.802 208.298 117.802 206.762C117.802 205.225 118.411 203.752 119.497 202.665C120.582 201.578 122.055 200.966 123.591 200.964H313.245C314.007 200.963 314.761 201.112 315.466 201.403C316.17 201.694 316.81 202.121 317.349 202.66C317.888 203.198 318.316 203.837 318.608 204.541C318.9 205.245 319.05 206 319.05 206.762C319.05 207.524 318.9 208.278 318.608 208.982C318.316 209.686 317.888 210.325 317.349 210.864C316.81 211.402 316.17 211.829 315.466 212.12C314.761 212.411 314.007 212.56 313.245 212.559V212.559Z" fill="#E6E6E6"/>
<path id="Vector_6" d="M313.245 272.188H123.591C122.055 272.186 120.582 271.574 119.497 270.487C118.411 269.4 117.802 267.927 117.802 266.391C117.802 264.854 118.411 263.381 119.497 262.294C120.582 261.207 122.055 260.595 123.591 260.593H313.245C314.007 260.592 314.761 260.742 315.466 261.032C316.17 261.323 316.81 261.75 317.349 262.289C317.888 262.827 318.316 263.466 318.608 264.17C318.9 264.874 319.05 265.629 319.05 266.391C319.05 267.153 318.9 267.907 318.608 268.611C318.316 269.315 317.888 269.954 317.349 270.493C316.81 271.031 316.17 271.458 315.466 271.749C314.761 272.04 314.007 272.189 313.245 272.188V272.188Z" fill="#E6E6E6"/>
<path id="Vector_7" d="M313.245 331.817H123.591C122.055 331.815 120.582 331.203 119.497 330.116C118.411 329.029 117.802 327.556 117.802 326.02C117.802 324.483 118.411 323.01 119.497 321.923C120.582 320.836 122.055 320.224 123.591 320.222H313.245C314.007 320.221 314.761 320.371 315.466 320.662C316.17 320.952 316.81 321.379 317.349 321.918C317.888 322.456 318.316 323.096 318.608 323.799C318.9 324.503 319.05 325.258 319.05 326.02C319.05 326.782 318.9 327.536 318.608 328.24C318.316 328.944 317.888 329.583 317.349 330.122C316.81 330.66 316.17 331.087 315.466 331.378C314.761 331.669 314.007 331.818 313.245 331.817V331.817Z" fill="#E6E6E6"/>
<path id="Vector_8" d="M313.245 391.446H123.591C122.055 391.444 120.582 390.832 119.497 389.745C118.411 388.658 117.802 387.185 117.802 385.649C117.802 384.113 118.411 382.639 119.497 381.552C120.582 380.465 122.055 379.854 123.591 379.852H313.245C314.007 379.851 314.761 380 315.466 380.291C316.17 380.582 316.81 381.008 317.349 381.547C317.888 382.085 318.316 382.725 318.608 383.429C318.9 384.132 319.05 384.887 319.05 385.649C319.05 386.411 318.9 387.165 318.608 387.869C318.316 388.573 317.888 389.212 317.349 389.751C316.81 390.289 316.17 390.716 315.466 391.007C314.761 391.298 314.007 391.447 313.245 391.446V391.446Z" fill="#E6E6E6"/>
<path id="Vector_9" d="M313.245 451.075H123.591C122.055 451.073 120.582 450.462 119.497 449.375C118.411 448.288 117.802 446.814 117.802 445.278C117.802 443.742 118.411 442.268 119.497 441.181C120.582 440.094 122.055 439.483 123.591 439.481H313.245C314.007 439.48 314.761 439.629 315.466 439.92C316.17 440.211 316.81 440.638 317.349 441.176C317.888 441.714 318.316 442.354 318.608 443.058C318.9 443.762 319.05 444.516 319.05 445.278C319.05 446.04 318.9 446.794 318.608 447.498C318.316 448.202 317.888 448.841 317.349 449.38C316.81 449.918 316.17 450.345 315.466 450.636C314.761 450.927 314.007 451.076 313.245 451.075V451.075Z" fill="#E6E6E6"/>
<path id="Vector_10" d="M280.118 212.559H122.763C122.001 212.56 121.246 212.411 120.542 212.12C119.838 211.829 119.198 211.402 118.659 210.864C118.12 210.325 117.692 209.686 117.4 208.982C117.108 208.278 116.958 207.524 116.958 206.762C116.958 206 117.108 205.245 117.4 204.541C117.692 203.837 118.12 203.198 118.659 202.66C119.198 202.121 119.838 201.694 120.542 201.403C121.246 201.112 122.001 200.963 122.763 200.964H280.118C281.654 200.966 283.126 201.578 284.212 202.665C285.298 203.752 285.907 205.225 285.907 206.762C285.907 208.298 285.298 209.771 284.212 210.858C283.126 211.945 281.654 212.557 280.118 212.559V212.559Z" fill="#6C63FF"/>
<path id="Vector_11" d="M231.255 272.188H122.763C121.225 272.188 119.751 271.577 118.664 270.49C117.577 269.403 116.966 267.928 116.966 266.391C116.966 264.853 117.577 263.379 118.664 262.291C119.751 261.204 121.225 260.593 122.763 260.593H231.255C232.017 260.592 232.771 260.742 233.476 261.032C234.18 261.323 234.82 261.75 235.359 262.289C235.898 262.827 236.326 263.466 236.618 264.17C236.91 264.874 237.06 265.629 237.06 266.391C237.06 267.153 236.91 267.907 236.618 268.611C236.326 269.315 235.898 269.954 235.359 270.493C234.82 271.031 234.18 271.458 233.476 271.749C232.771 272.04 232.017 272.189 231.255 272.188V272.188Z" fill="#6C63FF"/>
<path id="Vector_12" d="M171.626 331.817H122.763C122.001 331.818 121.246 331.669 120.542 331.378C119.838 331.087 119.198 330.66 118.659 330.122C118.12 329.583 117.692 328.944 117.4 328.24C117.108 327.536 116.958 326.782 116.958 326.02C116.958 325.258 117.108 324.503 117.4 323.799C117.692 323.096 118.12 322.456 118.659 321.918C119.198 321.379 119.838 320.952 120.542 320.662C121.246 320.371 122.001 320.221 122.763 320.222H171.626C173.162 320.224 174.635 320.836 175.72 321.923C176.806 323.01 177.415 324.483 177.415 326.02C177.415 327.556 176.806 329.029 175.72 330.116C174.635 331.203 173.162 331.815 171.626 331.817Z" fill="#6C63FF"/>
<path id="Vector_13" d="M295.025 391.446H122.763C121.225 391.446 119.751 390.835 118.664 389.748C117.577 388.661 116.966 387.186 116.966 385.649C116.966 384.111 117.577 382.637 118.664 381.55C119.751 380.462 121.225 379.852 122.763 379.852H295.025C296.562 379.852 298.037 380.462 299.124 381.55C300.211 382.637 300.822 384.111 300.822 385.649C300.822 387.186 300.211 388.661 299.124 389.748C298.037 390.835 296.562 391.446 295.025 391.446Z" fill="#6C63FF"/>
<path id="Vector_14" d="M256.928 451.075H122.763C122.001 451.076 121.246 450.927 120.542 450.636C119.838 450.345 119.198 449.918 118.659 449.38C118.12 448.841 117.692 448.202 117.4 447.498C117.108 446.794 116.958 446.04 116.958 445.278C116.958 444.516 117.108 443.762 117.4 443.058C117.692 442.354 118.12 441.714 118.659 441.176C119.198 440.638 119.838 440.211 120.542 439.92C121.246 439.629 122.001 439.48 122.763 439.481H256.928C257.69 439.48 258.445 439.629 259.149 439.92C259.854 440.211 260.494 440.638 261.033 441.176C261.572 441.714 262 442.354 262.291 443.058C262.583 443.762 262.733 444.516 262.733 445.278C262.733 446.04 262.583 446.794 262.291 447.498C262 448.202 261.572 448.841 261.033 449.38C260.494 449.918 259.854 450.345 259.149 450.636C258.445 450.927 257.69 451.076 256.928 451.075V451.075Z" fill="#6C63FF"/>
<path id="Vector_15" d="M892 563.74H4V565.74H892V563.74Z" fill="#3F3D56"/>
<path id="Vector_16" d="M509.988 270.907C509.988 270.907 503.702 224.814 493.227 237.385C482.751 249.956 493.227 268.812 493.227 268.812L501.607 279.288L509.988 273.003V270.907Z" fill="#9F616A"/>
<path id="Vector_17" d="M535.13 285.574C535.13 285.574 514.178 262.527 509.988 266.717C505.798 270.907 493.227 273.003 495.322 281.383C497.417 289.764 541.415 317.001 541.415 317.001L535.13 285.574Z" fill="#6C63FF"/>
<path id="Vector_18" opacity="0.1" d="M535.13 285.574C535.13 285.574 514.178 262.527 509.988 266.717C505.798 270.907 493.227 273.003 495.322 281.383C497.417 289.764 541.415 317.001 541.415 317.001L535.13 285.574Z" fill="black"/>
<path id="Vector_19" d="M654.554 283.478V300.24C654.554 300.24 656.649 337.952 644.078 335.857C631.507 333.762 637.793 302.335 637.793 302.335L639.888 283.478L654.554 283.478Z" fill="#9F616A"/>
<path id="Vector_20" d="M648.268 404.998C648.268 404.998 667.125 434.33 673.41 436.425C679.696 438.52 713.218 457.377 717.409 476.233L746.741 513.946L732.075 532.802C732.075 532.802 665.03 461.567 646.173 455.281C627.317 448.996 608.46 417.569 608.46 417.569L648.268 404.998Z" fill="#9F616A"/>
<path id="Vector_21" d="M499.512 356.809C499.512 356.809 459.704 363.094 465.99 388.236C472.275 413.378 533.035 465.757 533.035 465.757L535.13 478.328L558.177 482.518L568.652 472.043L566.557 465.757C566.557 465.757 541.415 442.71 539.32 434.33C537.225 425.949 514.178 392.427 503.702 390.332L518.369 381.951L499.512 356.809Z" fill="#9F616A"/>
<path id="Vector_22" d="M740.455 513.946C740.455 513.946 732.075 501.375 744.646 503.47C757.217 505.565 765.597 507.66 765.597 516.041C765.597 524.422 755.121 583.086 742.55 578.896C729.979 574.705 740.455 555.849 740.455 555.849C740.455 555.849 734.17 539.088 729.98 536.993C725.789 534.898 725.789 524.422 729.98 524.422C734.17 524.422 742.55 518.136 740.455 513.946Z" fill="#2F2E41"/>
<path id="Vector_23" d="M562.367 467.852C562.367 467.852 562.367 457.377 570.747 467.852C579.128 478.328 583.318 486.709 574.938 492.994C566.557 499.28 537.225 513.946 537.225 513.946C537.225 513.946 505.798 520.231 509.988 505.565C509.988 505.565 530.939 495.089 530.939 486.709C530.939 478.328 530.939 463.662 537.225 467.852C543.51 472.043 562.367 474.138 562.367 467.852Z" fill="#2F2E41"/>
<path id="Vector_24" d="M602.175 310.715C602.175 310.715 631.507 314.906 629.412 356.809C629.412 356.809 667.125 394.522 656.649 407.093C646.173 419.664 623.126 442.71 614.746 436.425C606.365 430.139 581.223 381.951 581.223 381.951C581.223 381.951 522.559 402.902 512.083 392.427C501.607 381.951 491.131 356.809 491.131 356.809L543.51 329.572L602.175 310.715Z" fill="#2F2E41"/>
<path id="Vector_25" d="M520.464 191.291C534.349 191.291 545.606 180.035 545.606 166.149C545.606 152.264 534.349 141.008 520.464 141.008C506.578 141.008 495.322 152.264 495.322 166.149C495.322 180.035 506.578 191.291 520.464 191.291Z" fill="#9F616A"/>
<path id="Vector_26" d="M539.32 168.245C539.32 168.245 553.986 191.291 558.177 193.387C562.367 195.482 528.844 216.433 528.844 216.433C528.844 216.433 528.844 189.196 518.368 182.911L539.32 168.245Z" fill="#9F616A"/>
<path id="Vector_27" d="M541.415 191.291C541.415 191.291 574.938 180.816 581.223 197.577C587.509 214.338 602.175 245.766 600.08 266.717C597.985 287.669 593.794 283.478 600.08 289.764C606.365 296.049 610.555 291.859 608.46 300.24C606.365 308.62 604.27 308.62 606.365 312.811C608.46 317.001 581.223 331.667 558.177 333.762L535.13 335.857C535.13 335.857 535.13 298.144 530.94 289.764C526.749 281.383 518.368 264.622 518.368 258.336V241.706C518.368 230.636 521.257 219.759 526.749 210.148V210.148C526.749 210.148 539.32 191.291 541.415 191.291Z" fill="#6C63FF"/>
<path id="Vector_28" d="M566.557 199.672C566.557 199.672 644.078 205.957 652.459 226.909C660.839 247.861 665.03 289.764 656.649 289.764C648.268 289.764 637.793 293.954 635.697 289.764C633.602 285.574 625.222 243.67 623.126 243.67C621.031 243.67 558.177 237.385 558.177 237.385C558.177 237.385 530.939 203.862 566.557 199.672Z" fill="#6C63FF"/>
<path id="Vector_29" d="M519.454 159.916C519.454 159.916 512.782 148.322 504.442 158.393C496.102 168.464 482.535 149.957 484.618 146.008C486.7 142.059 494.055 146.185 506.66 142.065C519.264 137.944 543.544 129.55 547.611 156.932C551.677 184.314 541.992 181.443 541.992 181.443C541.992 181.443 537.553 157.18 533.541 164.149L529.529 171.119L526.049 171.975L519.454 159.916Z" fill="#2F2E41"/>
</g>
</g>
<defs>
<filter id="filter0_d" x="0" y="0" width="900.35" height="587.11" filterUnits="userSpaceOnUse" color-interpolation-filters="sRGB">
<feFlood flood-opacity="0" result="BackgroundImageFix"/>
<feColorMatrix in="SourceAlpha" type="matrix" values="0 0 0 0 0 0 0 0 0 0 0 0 0 0 0 0 0 0 127 0"/>
<feOffset dy="4"/>
<feGaussianBlur stdDeviation="2"/>
<feColorMatrix type="matrix" values="0 0 0 0 0 0 0 0 0 0 0 0 0 0 0 0 0 0 0.25 0"/>
<feBlend mode="normal" in2="BackgroundImageFix" result="effect1_dropShadow"/>
<feBlend mode="normal" in="SourceGraphic" in2="effect1_dropShadow" result="shape"/>
</filter>
<clipPath id="clip0">
<rect width="892.35" height="579.11" fill="white" transform="translate(4)"/>
</clipPath>
</defs>
</svg>
