<svg width="4021" height="5344" viewBox="0 0 4021 5344" fill="none" xmlns="http://www.w3.org/2000/svg">
<path d="M3598.23 4855.52H422.77C401.599 4855.49 381.301 4846.73 366.33 4831.17C351.359 4815.6 342.938 4794.49 342.914 4772.48V815.766C342.938 793.75 351.359 772.642 366.33 757.074C381.3 741.506 401.598 732.749 422.77 732.724H3598.23C3619.41 732.75 3639.7 741.507 3654.67 757.075C3669.64 772.643 3678.07 793.75 3678.09 815.766V4772.48C3678.06 4794.49 3669.64 4815.6 3654.67 4831.17C3639.7 4846.73 3619.41 4855.49 3598.23 4855.52V4855.52Z" fill="white"/>
<path d="M2137.33 537.331H159.713C117.373 537.393 76.7839 554.912 46.845 586.045C16.906 617.178 0.0599207 659.386 0 703.415V4687.48L18.7897 4681.52V703.415C18.8352 664.564 33.697 627.317 60.1153 599.845C86.5336 572.372 122.351 556.918 159.713 556.87H2143.16L2137.33 537.331ZM3861.29 537.331H159.713C117.373 537.393 76.7839 554.912 46.845 586.045C16.906 617.178 0.0599207 659.386 0 703.415V5177.92C0.0598959 5221.95 16.906 5264.15 46.845 5295.29C76.7839 5326.42 117.373 5343.94 159.713 5344H3861.29C3903.63 5343.94 3944.22 5326.42 3974.16 5295.29C4004.09 5264.15 4020.94 5221.95 4021 5177.92V703.415C4020.94 659.386 4004.09 617.178 3974.16 586.045C3944.22 554.912 3903.63 537.393 3861.29 537.331V537.331ZM4002.21 5177.92C4002.17 5216.77 3987.3 5254.01 3960.88 5281.49C3934.47 5308.96 3898.65 5324.41 3861.29 5324.46H159.713C122.351 5324.41 86.5336 5308.96 60.1153 5281.49C33.697 5254.01 18.8352 5216.77 18.7897 5177.92V703.415C18.8352 664.564 33.697 627.317 60.1153 599.845C86.5336 572.372 122.351 556.918 159.713 556.87H3861.29C3898.65 556.918 3934.47 572.372 3960.88 599.845C3987.3 627.317 4002.17 664.564 4002.21 703.415V5177.92Z" fill="#1A06FF"/>
<path d="M3289.6 689H705.401C671.889 688.986 639.76 683.965 616.063 675.039C592.367 666.113 579.038 654.01 579 641.387V408.613C579.038 395.99 592.368 383.887 616.064 374.961C639.761 366.035 671.889 361.014 705.401 361H3289.6C3323.11 361.014 3355.24 366.035 3378.94 374.961C3402.63 383.887 3415.96 395.99 3416 408.613V641.387C3415.96 654.01 3402.63 666.113 3378.94 675.039C3355.24 683.965 3323.11 688.986 3289.6 689V689Z" fill="#DAD8FF"/>
<path d="M2010.5 390.786C2114.27 390.786 2198.4 303.306 2198.4 195.393C2198.4 87.4805 2114.27 0 2010.5 0C1906.73 0 1822.6 87.4805 1822.6 195.393C1822.6 303.306 1906.73 390.786 2010.5 390.786Z" fill="#6C63FF"/>
<path d="M2010.5 314.406C2073.71 314.406 2124.95 261.122 2124.95 195.393C2124.95 129.665 2073.71 76.3809 2010.5 76.3809C1947.29 76.3809 1896.05 129.665 1896.05 195.393C1896.05 261.122 1947.29 314.406 2010.5 314.406Z" fill="white"/>
</svg>
